<?xml version="1.0" standalone="no"?>
<!DOCTYPE svg PUBLIC "-//W3C//DTD SVG 20010904//EN"
 "http://www.w3.org/TR/2001/REC-SVG-20010904/DTD/svg10.dtd">
<svg version="1.0" xmlns="http://www.w3.org/2000/svg"
 width="1024.000000pt" height="1024.000000pt" viewBox="0 0 1024.000000 1024.000000"
 preserveAspectRatio="xMidYMid meet">

<g transform="translate(0.000000,1024.000000) scale(0.100000,-0.100000)"
fill="#000000" stroke="none">
<path d="M5260 9342 c0 -5 7 -17 15 -28 8 -10 15 -38 15 -61 0 -60 -92 -540
-142 -733 -16 -64 -35 -100 -75 -141 -19 -20 -31 -39 -26 -42 4 -3 61 -8 126
-12 128 -8 138 -4 95 43 -20 21 -23 34 -22 110 1 48 11 134 23 192 27 128 89
389 97 410 7 16 40 -121 129 -529 31 -140 57 -256 58 -257 1 -1 18 -4 38 -8
28 -5 38 -3 43 9 19 50 455 724 468 725 4 0 5 -15 2 -32 -2 -18 -20 -163 -40
-323 -19 -159 -39 -307 -44 -328 -10 -47 -33 -74 -71 -82 -47 -10 -34 -22 44
-39 227 -50 343 -73 350 -69 4 2 -2 16 -13 30 -16 20 -20 41 -20 93 0 68 57
546 85 715 8 50 15 94 15 99 0 5 18 26 41 47 l41 38 -39 7 c-21 4 -101 19
-178 34 -103 20 -143 24 -152 16 -6 -6 -89 -130 -183 -276 -187 -289 -178
-275 -184 -269 -3 2 -34 142 -69 309 l-64 305 -164 27 c-183 30 -199 31 -199
20z"/>
<path d="M4426 9264 c-98 -24 -180 -44 -181 -46 -2 -2 -24 -145 -50 -318 -25
-172 -47 -315 -49 -318 -3 -3 -355 454 -377 490 -5 7 -56 -1 -163 -27 -251
-59 -254 -61 -198 -87 15 -7 35 -29 44 -48 40 -81 208 -724 208 -792 -1 -24
-7 -54 -15 -68 -18 -32 -19 -50 -1 -50 25 0 216 72 216 81 0 5 -11 14 -24 19
-54 20 -94 105 -145 307 -33 133 -85 392 -79 398 2 2 33 -33 68 -78 263 -335
445 -557 456 -557 7 0 24 4 38 9 20 8 25 18 30 63 42 369 96 752 109 764 5 6
227 -642 227 -663 0 -11 -11 -37 -25 -58 -15 -20 -25 -38 -23 -40 6 -5 402 85
411 94 5 5 -2 14 -20 22 -41 20 -79 105 -171 389 -148 451 -152 471 -112 523
11 14 17 27 13 30 -5 2 -88 -16 -187 -39z"/>
<path d="M7017 8954 c-3 -4 -1 -16 5 -27 20 -38 22 -194 3 -310 -35 -224 -107
-471 -161 -549 -33 -47 -69 -71 -119 -78 -71 -9 -77 -3 223 -219 100 -72 147
-100 154 -93 7 7 4 19 -10 37 -66 83 -44 179 68 299 85 92 489 364 598 402 28
10 52 22 52 26 0 12 -183 147 -192 142 -4 -3 -8 -19 -8 -36 0 -46 -28 -94 -79
-137 -51 -43 -321 -224 -326 -219 -2 2 12 73 31 158 18 85 38 189 44 230 15
100 28 138 51 150 10 6 19 16 19 23 -1 7 -75 55 -166 107 -187 107 -178 103
-187 94z"/>
<path d="M2879 8715 c-63 -47 -115 -92 -117 -100 -3 -11 7 -15 38 -15 53 0 84
-17 141 -77 91 -96 312 -379 343 -440 21 -42 21 -135 -1 -180 -9 -21 -37 -49
-67 -69 -88 -58 -199 -64 -279 -16 -81 51 -313 329 -363 437 -27 58 -30 104
-9 144 11 23 12 31 2 39 -9 7 -31 -6 -82 -50 -38 -33 -121 -100 -182 -150 -62
-50 -113 -94 -113 -99 0 -5 18 -9 40 -9 80 0 108 -26 268 -252 125 -175 209
-265 279 -300 65 -31 182 -31 266 2 135 51 297 192 353 307 23 46 29 71 29
123 -1 97 -13 118 -221 375 -194 241 -219 287 -196 364 7 21 12 41 12 45 0 19
-38 -3 -141 -79z"/>
<path d="M4930 7964 c-250 -22 -458 -64 -675 -134 -936 -304 -1666 -1102
-1870 -2045 -45 -211 -58 -357 -52 -610 8 -371 69 -651 212 -977 68 -153 237
-434 288 -476 12 -10 41 15 176 155 288 299 495 478 630 546 77 38 90 42 181
45 75 3 111 0 152 -13 123 -41 301 -145 703 -411 149 -98 295 -190 325 -203
30 -13 68 -30 84 -39 16 -8 62 -17 102 -20 122 -8 219 20 713 205 343 128 401
158 401 210 0 40 -37 49 -119 29 -74 -18 -433 -134 -709 -230 -193 -67 -244
-77 -272 -51 -45 41 -13 84 150 205 135 101 255 208 390 346 140 145 205 223
350 423 162 225 204 250 277 167 21 -24 71 -106 112 -182 41 -77 96 -175 123
-218 114 -185 323 -433 540 -641 l135 -130 -80 -99 c-430 -530 -992 -847
-1672 -943 -165 -23 -515 -23 -684 0 -465 65 -878 235 -1251 515 -109 82 -360
320 -429 407 l-31 40 -104 -104 -105 -105 42 -50 c371 -449 938 -800 1520
-941 442 -108 923 -111 1345 -10 532 127 1023 404 1376 776 377 397 581 805
677 1354 30 169 38 555 15 745 -57 490 -234 934 -531 1327 -459 608 -1163
1018 -1920 1119 -110 14 -430 26 -515 18z m470 -290 c755 -86 1459 -528 1869
-1172 122 -193 242 -467 296 -680 52 -208 67 -323 72 -567 5 -244 -5 -372 -48
-575 -20 -98 -73 -287 -83 -297 -9 -9 -144 106 -204 174 -196 222 -297 422
-459 912 -148 448 -226 602 -394 772 -220 224 -521 316 -794 244 -213 -56
-423 -229 -523 -431 l-35 -71 -57 86 c-59 89 -187 221 -273 280 -251 173 -609
186 -911 35 -116 -59 -177 -103 -281 -208 -108 -109 -185 -215 -287 -396 -86
-151 -317 -589 -457 -865 -104 -207 -145 -274 -156 -263 -9 8 -45 187 -61 298
-22 147 -22 461 0 608 65 434 251 852 531 1197 167 206 425 430 660 573 307
187 694 318 1037 351 144 14 416 12 558 -5z m-758 -1715 c76 -25 164 -78 261
-157 91 -74 129 -91 205 -92 82 0 152 31 265 116 56 43 131 91 167 108 60 29
73 31 170 31 100 0 109 -2 175 -34 89 -44 180 -134 220 -216 37 -78 46 -207
20 -305 -69 -267 -416 -713 -905 -1163 -58 -53 -108 -97 -111 -97 -9 0 -471
471 -561 573 -243 274 -414 518 -464 660 -60 171 -23 354 97 476 117 119 289
156 461 100z"/>
<path d="M8455 7727 c-22 -31 -96 -86 -280 -209 -317 -212 -353 -232 -425
-232 -30 0 -66 4 -78 8 -20 7 -23 6 -20 -10 4 -26 131 -254 141 -254 9 0 23
33 32 75 10 46 98 122 288 248 193 128 247 162 247 152 0 -3 -82 -144 -183
-313 -238 -398 -233 -390 -220 -403 13 -13 37 -9 522 87 178 36 325 63 327 61
2 -1 -41 -36 -94 -77 -243 -188 -354 -272 -384 -290 -36 -22 -107 -27 -140 -9
-41 22 -40 -7 5 -82 24 -41 70 -123 102 -183 50 -94 60 -107 69 -92 6 10 20
32 31 50 19 28 356 283 574 433 76 53 88 58 137 58 30 0 55 3 56 7 2 4 -43 79
-100 167 -90 139 -107 160 -125 156 -12 -3 -141 -30 -287 -60 -146 -31 -273
-58 -282 -61 -10 -3 50 109 153 282 93 158 169 292 169 297 0 7 -199 238 -204
236 0 0 -14 -19 -31 -42z"/>
<path d="M1730 7649 c-41 -61 -76 -115 -78 -119 -2 -5 76 -129 173 -276 97
-146 174 -268 173 -269 -2 -2 -140 26 -308 62 -188 40 -309 62 -317 57 -23
-16 -223 -348 -214 -357 4 -4 25 0 45 9 32 16 44 16 93 6 70 -14 128 -49 297
-176 270 -204 367 -301 381 -386 5 -30 11 -40 23 -38 18 4 164 266 151 274 -5
2 -17 0 -28 -6 -41 -21 -104 -12 -166 25 -97 58 -451 332 -441 342 2 3 168
-27 368 -66 199 -38 374 -71 387 -73 18 -2 29 4 39 23 14 23 13 28 -20 75
-117 167 -449 666 -446 669 5 6 370 -206 496 -287 95 -62 127 -95 133 -137 2
-14 9 -26 15 -28 10 -3 208 315 216 346 2 10 -13 14 -52 15 -39 2 -84 15 -155
45 -194 83 -558 282 -645 353 -19 15 -37 28 -40 28 -3 -1 -39 -50 -80 -111z"/>
<path d="M9173 7529 c-44 -22 -68 -50 -79 -93 -6 -25 -5 -26 40 -26 37 0 47 4
57 23 16 30 28 37 66 37 41 0 63 -23 63 -66 0 -44 -26 -70 -79 -79 -37 -6 -41
-10 -41 -35 0 -24 4 -28 39 -34 50 -8 71 -29 71 -70 0 -45 -30 -71 -82 -71
-43 0 -78 30 -78 66 0 16 -8 19 -46 19 l-47 0 6 -40 c7 -57 31 -89 84 -112 91
-40 201 -6 242 75 28 58 23 107 -17 146 l-27 26 29 26 c24 21 30 35 33 80 5
64 -9 94 -56 126 -44 30 -120 31 -178 2z"/>
<path d="M8507 6058 c-19 -7 -26 -15 -23 -25 10 -24 44 -229 58 -343 17 -137
16 -599 -1 -750 -56 -502 -201 -968 -421 -1356 l-58 -104 46 -20 c37 -17 48
-18 58 -8 7 7 40 65 73 128 341 653 479 1465 371 2190 -26 173 -52 293 -65
296 -5 1 -23 -2 -38 -8z"/>
<path d="M1676 5948 c-58 -252 -81 -511 -73 -818 6 -227 15 -319 48 -518 38
-232 114 -502 196 -702 40 -97 174 -363 201 -398 l18 -24 47 23 c26 13 47 27
47 31 0 4 -15 31 -33 60 -219 345 -378 841 -427 1338 -32 323 -3 807 65 1071
6 23 3 28 -26 38 -17 6 -33 11 -35 11 -1 0 -14 -51 -28 -112z"/>
<path d="M2307 3277 l-177 -162 37 -37 37 -37 51 44 52 44 54 -66 c30 -36 57
-71 61 -76 4 -7 22 3 45 24 l39 34 -59 78 -60 77 44 40 c24 21 46 39 49 39 3
0 34 -36 70 -79 36 -43 67 -79 70 -79 3 0 22 14 42 32 l37 32 -76 90 c-42 50
-90 107 -107 127 l-32 36 -177 -161z"/>
<path d="M7722 3267 l-30 -43 109 -84 c59 -46 107 -85 106 -87 -2 -1 -72 7
-157 17 -85 11 -162 20 -170 20 -12 0 -54 -50 -68 -82 -2 -3 72 -72 165 -152
l168 -146 32 38 c18 20 32 40 33 44 0 3 -49 46 -110 94 -60 48 -108 89 -106
91 1 2 77 -6 167 -18 l164 -21 32 39 c18 21 33 43 33 49 0 8 -225 199 -327
276 -8 6 -21 -5 -41 -35z"/>
<path d="M2817 2865 c-173 -66 -230 -265 -110 -381 106 -103 245 -92 348 28
79 93 79 211 1 296 -52 59 -166 85 -239 57z m152 -121 c27 -22 31 -33 31 -73
0 -124 -145 -197 -222 -111 -35 38 -37 84 -5 131 53 79 138 102 196 53z"/>
<path d="M7163 2684 c-58 -21 -119 -83 -134 -136 -37 -140 82 -308 219 -308
106 0 194 69 223 175 26 93 -38 216 -135 261 -58 27 -111 29 -173 8z m149
-121 c58 -55 73 -116 41 -163 -27 -39 -45 -49 -90 -50 -69 0 -133 71 -133 148
0 33 32 79 64 93 34 14 87 2 118 -28z"/>
<path d="M3342 2387 c-40 -78 -77 -157 -82 -174 -19 -71 32 -154 123 -200 42
-21 61 -24 109 -21 85 6 121 45 208 223 l69 140 -46 23 c-25 13 -46 22 -48 20
-1 -2 -32 -63 -69 -135 -73 -143 -103 -178 -148 -169 -42 8 -75 34 -87 67 -9
27 -3 43 65 175 42 80 74 147 72 149 -5 4 -87 45 -90 45 -2 0 -36 -64 -76
-143z"/>
<path d="M6634 2357 l-41 -22 98 -203 98 -203 49 25 50 25 -99 201 c-54 110
-102 200 -106 200 -4 -1 -26 -11 -49 -23z"/>
<path d="M6140 2158 c-85 -28 -156 -51 -157 -52 -5 -5 30 -86 37 -86 4 0 29 7
55 15 27 8 50 13 51 12 1 -1 28 -75 60 -165 65 -180 58 -172 134 -139 l28 12
-59 155 c-32 85 -58 160 -58 166 -1 6 24 18 54 28 30 9 55 19 55 21 0 13 -33
85 -39 84 -3 0 -76 -23 -161 -51z"/>
<path d="M3972 1988 c-40 -117 -72 -216 -72 -220 0 -4 83 -38 95 -38 1 0 22
59 46 130 24 72 46 130 49 130 3 0 23 -71 45 -159 l40 -159 49 -16 c28 -8 51
-14 53 -12 2 2 37 103 77 224 l74 221 -51 15 c-28 8 -52 14 -53 13 -1 -1 -22
-65 -47 -141 -43 -133 -46 -138 -54 -105 -5 19 -25 94 -44 166 -36 142 -36
141 -109 158 -24 6 -27 1 -98 -207z"/>
<path d="M4740 2015 c-1 -16 -7 -118 -14 -225 -7 -107 -11 -197 -9 -199 2 -3
62 -5 132 -5 127 -1 130 -1 173 29 122 85 132 282 20 375 -47 39 -83 48 -205
52 l-97 3 0 -30z m204 -85 c36 -13 66 -67 66 -118 0 -87 -48 -132 -140 -132
-47 0 -50 2 -46 23 3 12 8 70 11 130 l7 107 38 0 c21 0 50 -4 64 -10z"/>
<path d="M5555 2043 c-18 -3 -29 -37 -82 -243 -68 -269 -70 -248 19 -234 33 6
37 10 47 49 10 41 12 43 58 49 27 4 62 9 80 12 29 6 32 3 52 -41 20 -45 23
-47 52 -41 17 3 42 6 56 6 31 0 33 -5 -85 247 l-95 203 -41 -1 c-23 -1 -50 -4
-61 -6z m84 -184 c17 -44 31 -84 31 -89 0 -9 -89 -24 -97 -17 -4 5 27 187 32
187 2 0 17 -36 34 -81z"/>
</g>
</svg>
