<svg width="1024" height="1024" xmlns="http://www.w3.org/2000/svg" preserveAspectRatio="xMidYMid meet" version="1.0">

 <g>
  <title>Layer 1</title>
  <g id="svg_1" fill="#000000" transform="translate(0 1024) scale(0.1 -0.1)">
   <path fill="#8d38a1" id="svg_2" d="m5260,9342c0,-5 7,-17 15,-28c8,-10 15,-38 15,-61c0,-60 -92,-540 -142,-733c-16,-64 -35,-100 -75,-141c-19,-20 -31,-39 -26,-42c4,-3 61,-8 126,-12c128,-8 138,-4 95,43c-20,21 -23,34 -22,110c1,48 11,134 23,192c27,128 89,389 97,410c7,16 40,-121 129,-529c31,-140 57,-256 58,-257c1,-1 18,-4 38,-8c28,-5 38,-3 43,9c19,50 455,724 468,725c4,0 5,-15 2,-32c-2,-18 -20,-163 -40,-323c-19,-159 -39,-307 -44,-328c-10,-47 -33,-74 -71,-82c-47,-10 -34,-22 44,-39c227,-50 343,-73 350,-69c4,2 -2,16 -13,30c-16,20 -20,41 -20,93c0,68 57,546 85,715c8,50 15,94 15,99c0,5 18,26 41,47l41,38l-39,7c-21,4 -101,19 -178,34c-103,20 -143,24 -152,16c-6,-6 -89,-130 -183,-276c-187,-289 -178,-275 -184,-269c-3,2 -34,142 -69,309l-64,305l-164,27c-183,30 -199,31 -199,20z"/>
   <path fill="#8d38a1" id="svg_3" d="m4426,9264c-98,-24 -180,-44 -181,-46c-2,-2 -24,-145 -50,-318c-25,-172 -47,-315 -49,-318c-3,-3 -355,454 -377,490c-5,7 -56,-1 -163,-27c-251,-59 -254,-61 -198,-87c15,-7 35,-29 44,-48c40,-81 208,-724 208,-792c-1,-24 -7,-54 -15,-68c-18,-32 -19,-50 -1,-50c25,0 216,72 216,81c0,5 -11,14 -24,19c-54,20 -94,105 -145,307c-33,133 -85,392 -79,398c2,2 33,-33 68,-78c263,-335 445,-557 456,-557c7,0 24,4 38,9c20,8 25,18 30,63c42,369 96,752 109,764c5,6 227,-642 227,-663c0,-11 -11,-37 -25,-58c-15,-20 -25,-38 -23,-40c6,-5 402,85 411,94c5,5 -2,14 -20,22c-41,20 -79,105 -171,389c-148,451 -152,471 -112,523c11,14 17,27 13,30c-5,2 -88,-16 -187,-39z"/>
   <path fill="#8d38a1" id="svg_4" d="m7017,8954c-3,-4 -1,-16 5,-27c20,-38 22,-194 3,-310c-35,-224 -107,-471 -161,-549c-33,-47 -69,-71 -119,-78c-71,-9 -77,-3 223,-219c100,-72 147,-100 154,-93c7,7 4,19 -10,37c-66,83 -44,179 68,299c85,92 489,364 598,402c28,10 52,22 52,26c0,12 -183,147 -192,142c-4,-3 -8,-19 -8,-36c0,-46 -28,-94 -79,-137c-51,-43 -321,-224 -326,-219c-2,2 12,73 31,158c18,85 38,189 44,230c15,100 28,138 51,150c10,6 19,16 19,23c-1,7 -75,55 -166,107c-187,107 -178,103 -187,94z"/>
   <path fill="#8d38a1" id="svg_5" d="m2879,8715c-63,-47 -115,-92 -117,-100c-3,-11 7,-15 38,-15c53,0 84,-17 141,-77c91,-96 312,-379 343,-440c21,-42 21,-135 -1,-180c-9,-21 -37,-49 -67,-69c-88,-58 -199,-64 -279,-16c-81,51 -313,329 -363,437c-27,58 -30,104 -9,144c11,23 12,31 2,39c-9,7 -31,-6 -82,-50c-38,-33 -121,-100 -182,-150c-62,-50 -113,-94 -113,-99c0,-5 18,-9 40,-9c80,0 108,-26 268,-252c125,-175 209,-265 279,-300c65,-31 182,-31 266,2c135,51 297,192 353,307c23,46 29,71 29,123c-1,97 -13,118 -221,375c-194,241 -219,287 -196,364c7,21 12,41 12,45c0,19 -38,-3 -141,-79z"/>
   <path fill="#8d38a1" id="svg_6" d="m4930,7964c-250,-22 -458,-64 -675,-134c-936,-304 -1666,-1102 -1870,-2045c-45,-211 -58,-357 -52,-610c8,-371 69,-651 212,-977c68,-153 237,-434 288,-476c12,-10 41,15 176,155c288,299 495,478 630,546c77,38 90,42 181,45c75,3 111,0 152,-13c123,-41 301,-145 703,-411c149,-98 295,-190 325,-203c30,-13 68,-30 84,-39c16,-8 62,-17 102,-20c122,-8 219,20 713,205c343,128 401,158 401,210c0,40 -37,49 -119,29c-74,-18 -433,-134 -709,-230c-193,-67 -244,-77 -272,-51c-45,41 -13,84 150,205c135,101 255,208 390,346c140,145 205,223 350,423c162,225 204,250 277,167c21,-24 71,-106 112,-182c41,-77 96,-175 123,-218c114,-185 323,-433 540,-641l135,-130l-80,-99c-430,-530 -992,-847 -1672,-943c-165,-23 -515,-23 -684,0c-465,65 -878,235 -1251,515c-109,82 -360,320 -429,407l-31,40l-104,-104l-105,-105l42,-50c371,-449 938,-800 1520,-941c442,-108 923,-111 1345,-10c532,127 1023,404 1376,776c377,397 581,805 677,1354c30,169 38,555 15,745c-57,490 -234,934 -531,1327c-459,608 -1163,1018 -1920,1119c-110,14 -430,26 -515,18zm470,-290c755,-86 1459,-528 1869,-1172c122,-193 242,-467 296,-680c52,-208 67,-323 72,-567c5,-244 -5,-372 -48,-575c-20,-98 -73,-287 -83,-297c-9,-9 -144,106 -204,174c-196,222 -297,422 -459,912c-148,448 -226,602 -394,772c-220,224 -521,316 -794,244c-213,-56 -423,-229 -523,-431l-35,-71l-57,86c-59,89 -187,221 -273,280c-251,173 -609,186 -911,35c-116,-59 -177,-103 -281,-208c-108,-109 -185,-215 -287,-396c-86,-151 -317,-589 -457,-865c-104,-207 -145,-274 -156,-263c-9,8 -45,187 -61,298c-22,147 -22,461 0,608c65,434 251,852 531,1197c167,206 425,430 660,573c307,187 694,318 1037,351c144,14 416,12 558,-5zm-758,-1715c76,-25 164,-78 261,-157c91,-74 129,-91 205,-92c82,0 152,31 265,116c56,43 131,91 167,108c60,29 73,31 170,31c100,0 109,-2 175,-34c89,-44 180,-134 220,-216c37,-78 46,-207 20,-305c-69,-267 -416,-713 -905,-1163c-58,-53 -108,-97 -111,-97c-9,0 -471,471 -561,573c-243,274 -414,518 -464,660c-60,171 -23,354 97,476c117,119 289,156 461,100z"/>
   <path fill="#8d38a1" id="svg_7" d="m8455,7727c-22,-31 -96,-86 -280,-209c-317,-212 -353,-232 -425,-232c-30,0 -66,4 -78,8c-20,7 -23,6 -20,-10c4,-26 131,-254 141,-254c9,0 23,33 32,75c10,46 98,122 288,248c193,128 247,162 247,152c0,-3 -82,-144 -183,-313c-238,-398 -233,-390 -220,-403c13,-13 37,-9 522,87c178,36 325,63 327,61c2,-1 -41,-36 -94,-77c-243,-188 -354,-272 -384,-290c-36,-22 -107,-27 -140,-9c-41,22 -40,-7 5,-82c24,-41 70,-123 102,-183c50,-94 60,-107 69,-92c6,10 20,32 31,50c19,28 356,283 574,433c76,53 88,58 137,58c30,0 55,3 56,7c2,4 -43,79 -100,167c-90,139 -107,160 -125,156c-12,-3 -141,-30 -287,-60c-146,-31 -273,-58 -282,-61c-10,-3 50,109 153,282c93,158 169,292 169,297c0,7 -199,238 -204,236c0,0 -14,-19 -31,-42z"/>
   <path fill="#8d38a1" id="svg_8" d="m1730,7649c-41,-61 -76,-115 -78,-119c-2,-5 76,-129 173,-276c97,-146 174,-268 173,-269c-2,-2 -140,26 -308,62c-188,40 -309,62 -317,57c-23,-16 -223,-348 -214,-357c4,-4 25,0 45,9c32,16 44,16 93,6c70,-14 128,-49 297,-176c270,-204 367,-301 381,-386c5,-30 11,-40 23,-38c18,4 164,266 151,274c-5,2 -17,0 -28,-6c-41,-21 -104,-12 -166,25c-97,58 -451,332 -441,342c2,3 168,-27 368,-66c199,-38 374,-71 387,-73c18,-2 29,4 39,23c14,23 13,28 -20,75c-117,167 -449,666 -446,669c5,6 370,-206 496,-287c95,-62 127,-95 133,-137c2,-14 9,-26 15,-28c10,-3 208,315 216,346c2,10 -13,14 -52,15c-39,2 -84,15 -155,45c-194,83 -558,282 -645,353c-19,15 -37,28 -40,28c-3,-1 -39,-50 -80,-111z"/>
   <path fill="#8d38a1" id="svg_9" d="m9173,7529c-44,-22 -68,-50 -79,-93c-6,-25 -5,-26 40,-26c37,0 47,4 57,23c16,30 28,37 66,37c41,0 63,-23 63,-66c0,-44 -26,-70 -79,-79c-37,-6 -41,-10 -41,-35c0,-24 4,-28 39,-34c50,-8 71,-29 71,-70c0,-45 -30,-71 -82,-71c-43,0 -78,30 -78,66c0,16 -8,19 -46,19l-47,0l6,-40c7,-57 31,-89 84,-112c91,-40 201,-6 242,75c28,58 23,107 -17,146l-27,26l29,26c24,21 30,35 33,80c5,64 -9,94 -56,126c-44,30 -120,31 -178,2z"/>
   <path fill="#8d38a1" id="svg_10" d="m8507,6058c-19,-7 -26,-15 -23,-25c10,-24 44,-229 58,-343c17,-137 16,-599 -1,-750c-56,-502 -201,-968 -421,-1356l-58,-104l46,-20c37,-17 48,-18 58,-8c7,7 40,65 73,128c341,653 479,1465 371,2190c-26,173 -52,293 -65,296c-5,1 -23,-2 -38,-8z"/>
   <path fill="#8d38a1" id="svg_11" d="m1676,5948c-58,-252 -81,-511 -73,-818c6,-227 15,-319 48,-518c38,-232 114,-502 196,-702c40,-97 174,-363 201,-398l18,-24l47,23c26,13 47,27 47,31c0,4 -15,31 -33,60c-219,345 -378,841 -427,1338c-32,323 -3,807 65,1071c6,23 3,28 -26,38c-17,6 -33,11 -35,11c-1,0 -14,-51 -28,-112z"/>
   <path fill="#8d38a1" id="svg_12" d="m2307,3277l-177,-162l37,-37l37,-37l51,44l52,44l54,-66c30,-36 57,-71 61,-76c4,-7 22,3 45,24l39,34l-59,78l-60,77l44,40c24,21 46,39 49,39c3,0 34,-36 70,-79c36,-43 67,-79 70,-79c3,0 22,14 42,32l37,32l-76,90c-42,50 -90,107 -107,127l-32,36l-177,-161z"/>
   <path fill="#8d38a1" id="svg_13" d="m7722,3267l-30,-43l109,-84c59,-46 107,-85 106,-87c-2,-1 -72,7 -157,17c-85,11 -162,20 -170,20c-12,0 -54,-50 -68,-82c-2,-3 72,-72 165,-152l168,-146l32,38c18,20 32,40 33,44c0,3 -49,46 -110,94c-60,48 -108,89 -106,91c1,2 77,-6 167,-18l164,-21l32,39c18,21 33,43 33,49c0,8 -225,199 -327,276c-8,6 -21,-5 -41,-35z"/>
   <path fill="#8d38a1" id="svg_14" d="m2817,2865c-173,-66 -230,-265 -110,-381c106,-103 245,-92 348,28c79,93 79,211 1,296c-52,59 -166,85 -239,57zm152,-121c27,-22 31,-33 31,-73c0,-124 -145,-197 -222,-111c-35,38 -37,84 -5,131c53,79 138,102 196,53z"/>
   <path fill="#8d38a1" id="svg_15" d="m7163,2684c-58,-21 -119,-83 -134,-136c-37,-140 82,-308 219,-308c106,0 194,69 223,175c26,93 -38,216 -135,261c-58,27 -111,29 -173,8zm149,-121c58,-55 73,-116 41,-163c-27,-39 -45,-49 -90,-50c-69,0 -133,71 -133,148c0,33 32,79 64,93c34,14 87,2 118,-28z"/>
   <path fill="#8d38a1" id="svg_16" d="m3342,2387c-40,-78 -77,-157 -82,-174c-19,-71 32,-154 123,-200c42,-21 61,-24 109,-21c85,6 121,45 208,223l69,140l-46,23c-25,13 -46,22 -48,20c-1,-2 -32,-63 -69,-135c-73,-143 -103,-178 -148,-169c-42,8 -75,34 -87,67c-9,27 -3,43 65,175c42,80 74,147 72,149c-5,4 -87,45 -90,45c-2,0 -36,-64 -76,-143z"/>
   <path fill="#8d38a1" id="svg_17" d="m6634,2357l-41,-22l98,-203l98,-203l49,25l50,25l-99,201c-54,110 -102,200 -106,200c-4,-1 -26,-11 -49,-23z"/>
   <path fill="#8d38a1" id="svg_18" d="m6140,2158c-85,-28 -156,-51 -157,-52c-5,-5 30,-86 37,-86c4,0 29,7 55,15c27,8 50,13 51,12c1,-1 28,-75 60,-165c65,-180 58,-172 134,-139l28,12l-59,155c-32,85 -58,160 -58,166c-1,6 24,18 54,28c30,9 55,19 55,21c0,13 -33,85 -39,84c-3,0 -76,-23 -161,-51z"/>
   <path fill="#8d38a1" id="svg_19" d="m3972,1988c-40,-117 -72,-216 -72,-220c0,-4 83,-38 95,-38c1,0 22,59 46,130c24,72 46,130 49,130c3,0 23,-71 45,-159l40,-159l49,-16c28,-8 51,-14 53,-12c2,2 37,103 77,224l74,221l-51,15c-28,8 -52,14 -53,13c-1,-1 -22,-65 -47,-141c-43,-133 -46,-138 -54,-105c-5,19 -25,94 -44,166c-36,142 -36,141 -109,158c-24,6 -27,1 -98,-207z"/>
   <path fill="#8d38a1" id="svg_20" d="m4740,2015c-1,-16 -7,-118 -14,-225c-7,-107 -11,-197 -9,-199c2,-3 62,-5 132,-5c127,-1 130,-1 173,29c122,85 132,282 20,375c-47,39 -83,48 -205,52l-97,3l0,-30zm204,-85c36,-13 66,-67 66,-118c0,-87 -48,-132 -140,-132c-47,0 -50,2 -46,23c3,12 8,70 11,130l7,107l38,0c21,0 50,-4 64,-10z"/>
   <path fill="#8d38a1" id="svg_21" d="m5555,2043c-18,-3 -29,-37 -82,-243c-68,-269 -70,-248 19,-234c33,6 37,10 47,49c10,41 12,43 58,49c27,4 62,9 80,12c29,6 32,3 52,-41c20,-45 23,-47 52,-41c17,3 42,6 56,6c31,0 33,-5 -85,247l-95,203l-41,-1c-23,-1 -50,-4 -61,-6zm84,-184c17,-44 31,-84 31,-89c0,-9 -89,-24 -97,-17c-4,5 27,187 32,187c2,0 17,-36 34,-81z"/>
  </g>
 </g>
</svg>